<svg width="320" height="320" viewBox="0 0 320 320" fill="none" xmlns="http://www.w3.org/2000/svg">
<rect width="320" height="320" rx="160" fill="white"/>
<path d="M60.8205 165.719C65.4611 165.719 69.8833 166.654 73.9093 168.346C73.2244 171.792 72.8644 175.355 72.8644 179.002C72.8646 194.24 79.1352 208.013 89.2365 217.882C83.2126 227.195 72.7372 233.359 60.8205 233.359C42.1422 233.359 27.0002 218.217 27.0002 199.539C27.0003 180.861 42.1423 165.719 60.8205 165.719ZM219.071 86.001C259.763 86.001 292.751 118.988 292.751 159.68C292.751 200.372 259.763 233.359 219.071 233.359C199.746 233.359 182.159 225.918 169.017 213.745C176.855 204.325 181.571 192.215 181.571 179.002C181.571 157.697 169.313 139.254 151.464 130.343C162.803 104.249 188.806 86.001 219.071 86.001ZM127.218 124.648C135.931 124.649 144.165 126.699 151.464 130.343C147.558 139.332 145.392 149.253 145.392 159.68C145.392 181.046 154.488 200.287 169.017 213.745C159.047 225.727 144.023 233.355 127.218 233.355C112.437 233.355 99.0348 227.455 89.2365 217.882C92.6544 212.598 94.6408 206.301 94.6408 199.539C94.6407 185.501 86.0879 173.462 73.9093 168.346C78.8622 143.429 100.846 124.648 127.218 124.648Z" fill="#199B61"/>
</svg>
