<svg xmlns="http://www.w3.org/2000/svg" width="134.846" height="52.427" viewBox="0 0 134.846 52.427" fill="#000">
  <path d="M 25.863 8.321 L 19.23 8.321 C 14.678 8.321 10.778 11.108 9.142 15.068 L 23.237 15.068 L 23.237 23.389 L 9.142 23.389 C 10.777 27.35 14.678 30.139 19.23 30.139 L 19.23 30.14 L 25.863 30.14 L 25.863 38.46 L 18.062 38.46 L 18.062 38.424 C 7.985 37.821 0 29.458 0 19.23 C 0 9.001 7.985 0.638 18.062 0.035 L 18.062 0 L 25.863 0 L 25.863 8.321 Z M 48.616 38.507 L 48.616 37.14 C 46.787 37.986 44.749 38.459 42.601 38.459 C 34.684 38.459 28.266 32.041 28.266 24.123 C 28.266 16.206 34.684 9.788 42.601 9.788 C 44.749 9.788 46.787 10.26 48.616 11.107 L 48.616 9.584 L 56.937 9.584 L 56.937 24.047 L 56.937 24.123 L 56.937 24.2 L 56.937 38.507 L 48.616 38.507 Z M 42.601 30.138 C 45.907 30.138 48.589 27.472 48.616 24.173 L 48.616 24.074 C 48.589 20.775 45.907 18.109 42.601 18.109 C 39.279 18.109 36.587 20.801 36.587 24.123 C 36.587 27.445 39.279 30.138 42.601 30.138 Z M 73.831 18.128 L 75.544 18.108 L 75.446 9.788 L 73.755 9.808 C 65.882 9.822 59.405 16.183 59.405 24.123 L 59.405 38.439 L 67.726 38.439 L 67.726 24.123 C 67.726 20.834 70.427 18.129 73.782 18.129 L 73.806 18.129 L 73.831 18.128 Z M 85.406 24.123 C 85.406 20.801 88.099 18.109 91.42 18.109 C 94.742 18.109 97.435 20.801 97.435 24.123 L 97.435 38.448 L 105.756 38.448 L 105.756 24.123 C 105.756 16.206 99.338 9.788 91.42 9.788 C 83.503 9.788 77.085 16.206 77.085 24.123 L 77.085 38.448 L 85.406 38.448 L 85.406 24.123 Z M 121.26 30.928 C 118.645 30.928 115.994 28.54 115.994 24.913 L 115.994 10.589 L 107.673 10.589 L 107.673 24.913 C 107.673 32.525 113.462 39.248 121.26 39.248 C 123.15 39.248 124.921 38.853 126.522 38.146 C 126.492 41.443 123.811 44.106 120.507 44.106 C 118.72 44.106 117.12 43.332 116.012 42.088 L 109.797 47.621 C 112.417 50.563 116.247 52.427 120.507 52.427 C 128.424 52.427 134.842 46.008 134.842 38.091 L 134.842 25.232 C 134.845 25.126 134.846 25.019 134.846 24.913 L 134.846 10.589 L 126.525 10.589 L 126.525 18.806 L 126.522 18.806 L 126.522 25.137 C 126.415 28.638 123.819 30.928 121.26 30.928 Z" fill="#000" fill-rule="evenodd"></path>
</svg>