<svg width="134" height="52" viewBox="0 0 134 52" fill="none" xmlns="http://www.w3.org/2000/svg">
<path d="M115.053 24.71C115.053 28.3078 117.682 30.6758 120.275 30.6758C122.838 30.6755 125.435 28.3624 125.495 24.835V18.6533H125.498V10.502H133.751V24.71C133.751 24.7806 133.749 24.8514 133.748 24.9219V37.7812C133.748 45.634 127.382 52.0007 119.529 52.001C115.304 52.001 111.505 50.1521 108.906 47.2334L111.988 44.4902L115.07 41.7461C116.169 42.9802 117.757 43.7471 119.529 43.7471C122.806 43.7467 125.465 41.1052 125.493 37.835C123.906 38.5361 122.15 38.9296 120.275 38.9297C112.541 38.9297 106.799 32.2601 106.799 24.71V10.502H115.053V24.71ZM56.4746 38.1943H48.2207V36.8369C46.4066 37.6766 44.3863 38.1464 42.2559 38.1465C34.4029 38.1465 28.0362 31.7806 28.0361 23.9277C28.0362 16.0748 34.4029 9.70801 42.2559 9.70801C44.3861 9.70805 46.4067 10.177 48.2207 11.0166V9.50586H56.4746V38.1943ZM25.6533 8.25391H19.0742L18.5166 8.26758C14.2438 8.48435 10.6269 11.1805 9.07129 14.9453H23.0488V23.1992H9.06934C10.6914 27.1284 14.5594 29.8945 19.0742 29.8945H25.6533V38.1484H17.915V38.1104C7.92091 37.5113 0.000375273 29.2187 0 19.0742C0 8.92936 7.92064 0.634207 17.915 0.0351562V0H25.6533V8.25391ZM90.6787 9.70801C98.5315 9.70823 104.897 16.0749 104.897 23.9277V38.1357H96.6445V23.9277C96.6445 20.6329 93.9734 17.9621 90.6787 17.9619C87.3838 17.9619 84.7129 20.6328 84.7129 23.9277V38.1357H76.459V23.9277C76.459 16.0748 82.8257 9.70801 90.6787 9.70801ZM74.8818 13.835L74.9307 17.9609L73.2314 17.9814H73.1826C69.8555 17.9816 67.1768 20.6651 67.1768 23.9277V38.127H58.9229V23.9277C58.9229 16.0591 65.3354 9.75588 73.1338 9.72949V9.72852L74.834 9.70898L74.8818 13.835ZM42.2559 17.9619C38.9609 17.9619 36.2901 20.6328 36.29 23.9277C36.2902 27.2226 38.961 29.8936 42.2559 29.8936C45.5379 29.8934 48.2001 27.2431 48.2207 23.9658V23.8887C48.1997 20.6118 45.5376 17.9621 42.2559 17.9619Z" fill="white"></path>
</svg>