<svg xmlns="http://www.w3.org/2000/svg" width="18.815" height="17.354" viewBox="0 0 18.815 17.354" fill="#000">
  <path d="M 10.408 17.354 L 8.408 17.354 L 8.408 10.839 L 10.408 10.839 L 10.408 17.354 Z M 6.416 10.839 C 6.416 14.382 3.543 17.255 0 17.255 L 0 15.255 C 2.439 15.255 4.416 13.278 4.416 10.839 L 6.416 10.839 Z M 14.399 10.839 C 14.4 13.278 16.377 15.254 18.815 15.255 L 18.815 17.255 C 15.272 17.254 12.4 14.382 12.399 10.839 L 14.399 10.839 Z M 9.408 0 C 13.789 0 17.341 3.552 17.342 7.933 L 17.342 10.781 L 15.342 10.781 L 15.342 7.933 C 15.341 4.656 12.685 2 9.408 2 C 6.132 2 3.476 4.656 3.476 7.933 L 3.476 10.838 L 1.476 10.838 L 1.476 7.933 C 1.476 3.552 5.027 0 9.408 0 Z" fill="#000" fill-rule="nonzero"></path>
</svg>