<svg xmlns="http://www.w3.org/2000/svg" width="20.964" height="20.485" viewBox="0 0 20.964 20.485" fill="#000">
  <path d="M 15.651 0.08 C 17.131 -0.315 18.583 0.799 18.583 2.33 L 18.583 3.609 L 18.571 3.847 C 18.559 3.969 18.536 4.088 18.506 4.204 L 19.799 4.204 L 19.918 4.209 C 20.505 4.269 20.964 4.766 20.964 5.369 L 20.964 19.321 L 20.958 19.44 C 20.902 19.988 20.466 20.423 19.918 20.479 L 19.799 20.485 L 1.165 20.485 L 1.046 20.479 C 0.498 20.423 0.062 19.988 0.006 19.44 L 0 19.321 L 0 5.369 C 0 5.302 0.006 5.237 0.017 5.173 C 0.006 5.115 0 5.056 0 4.995 C 0 4.567 0.287 4.193 0.7 4.082 L 15.651 0.08 Z M 1.8 18.685 L 19.164 18.685 L 19.164 6.003 L 1.8 6.003 L 1.8 18.685 Z M 14.559 10.597 C 15.022 10.597 15.466 10.781 15.794 11.109 C 16.121 11.436 16.306 11.881 16.306 12.344 C 16.306 12.807 16.121 13.252 15.794 13.58 C 15.466 13.907 15.022 14.091 14.559 14.091 C 14.095 14.091 13.651 13.907 13.323 13.58 C 12.996 13.252 12.812 12.807 12.812 12.344 C 12.812 11.881 12.996 11.436 13.323 11.109 C 13.651 10.781 14.095 10.597 14.559 10.597 Z M 16.783 2.33 C 16.783 1.983 16.453 1.729 16.117 1.819 L 7.451 4.138 L 16.254 4.138 C 16.546 4.138 16.783 3.901 16.783 3.609 L 16.783 2.33 Z" fill="#000" fill-rule="nonzero"></path>
</svg>