<svg xmlns="http://www.w3.org/2000/svg" width="16.500" height="16.500" viewBox="0 0 16.500 16.500" fill="#000">
  <path d="M 5.179 0 L 5.179 0.75 L 5.18 0.75 L 5.179 0 Z M 1.723 0 L 1.722 0.75 L 1.723 0.75 L 1.723 0 Z M 0 1.723 L 0.75 1.723 L 0.75 1.722 L 0 1.723 Z M 0 5.179 L 0.75 5.18 L 0.75 5.179 L 0 5.179 Z M 1.723 6.911 L 1.72 7.661 L 1.723 7.661 L 1.723 6.911 Z M 5.179 6.911 L 5.18 6.161 L 5.179 6.161 L 5.179 6.911 Z M 6.911 5.179 L 6.161 5.179 L 6.161 5.18 L 6.911 5.179 Z M 6.911 1.723 L 7.661 1.723 L 7.661 1.72 L 6.911 1.723 Z M 14.777 0 L 14.777 0.75 L 14.778 0.75 L 14.777 0 Z M 11.321 0 L 11.32 0.75 L 11.321 0.75 L 11.321 0 Z M 9.589 1.723 L 8.839 1.72 L 8.839 1.723 L 9.589 1.723 Z M 9.589 5.179 L 8.839 5.179 L 8.839 5.18 L 9.589 5.179 Z M 11.321 6.911 L 11.32 7.661 L 11.321 7.661 L 11.321 6.911 Z M 14.777 6.911 L 14.777 7.661 L 14.78 7.661 L 14.777 6.911 Z M 16.5 5.179 L 15.75 5.179 L 15.75 5.18 L 16.5 5.179 Z M 16.5 1.723 L 15.75 1.722 L 15.75 1.723 L 16.5 1.723 Z M 15.996 0.504 L 15.466 1.035 L 15.996 0.504 Z M 14.777 10.338 C 15.191 10.338 15.527 10.002 15.527 9.588 C 15.527 9.174 15.191 8.838 14.777 8.838 L 14.777 10.338 Z M 11.321 9.588 L 11.32 10.338 L 11.321 10.338 L 11.321 9.588 Z M 9.589 11.312 L 8.839 11.309 L 8.839 11.312 L 9.589 11.312 Z M 9.589 14.768 L 10.339 14.769 L 10.339 14.768 L 9.589 14.768 Z M 10.096 15.993 L 9.565 16.524 L 10.096 15.993 Z M 11.321 16.5 L 11.321 15.75 L 11.32 15.75 L 11.321 16.5 Z M 14.777 16.5 L 14.777 17.25 L 14.78 17.25 L 14.777 16.5 Z M 15.996 15.99 L 15.465 15.461 L 15.996 15.99 Z M 16.5 14.768 L 15.75 14.768 L 15.75 14.769 L 16.5 14.768 Z M 16.5 11.312 L 15.75 11.311 L 15.75 11.312 L 16.5 11.312 Z M 15.996 10.093 L 15.466 10.623 L 15.996 10.093 Z M 14.776 8.839 C 14.362 8.839 14.026 9.175 14.027 9.59 C 14.027 10.004 14.363 10.339 14.778 10.339 L 14.776 8.839 Z M 5.179 10.338 C 5.593 10.338 5.929 10.002 5.929 9.588 C 5.929 9.174 5.593 8.838 5.179 8.838 L 5.179 10.338 Z M 1.723 9.588 L 1.723 8.838 L 1.719 8.838 L 1.723 9.588 Z M 0 11.321 L 0.75 11.321 L 0.75 11.321 L 0 11.321 Z M 0 14.777 L 0.75 14.778 L 0.75 14.777 L 0 14.777 Z M 0.504 15.996 L 1.035 15.466 L 0.504 15.996 Z M 1.723 16.5 L 1.723 15.75 L 1.722 15.75 L 1.723 16.5 Z M 5.179 16.5 L 5.18 15.75 L 5.179 15.75 L 5.179 16.5 Z M 6.911 14.777 L 7.661 14.78 L 7.661 14.777 L 6.911 14.777 Z M 6.911 11.321 L 6.161 11.32 L 6.161 11.321 L 6.911 11.321 Z M 5.178 8.839 C 4.764 8.839 4.429 9.175 4.429 9.59 C 4.43 10.004 4.766 10.339 5.18 10.339 L 5.178 8.839 Z M 5.179 0 L 5.179 -0.75 L 1.723 -0.75 L 1.723 0 L 1.723 0.75 L 5.179 0.75 L 5.179 0 Z M 1.723 0 L 1.724 -0.75 C 1.399 -0.75 1.077 -0.687 0.777 -0.562 L 1.063 0.131 L 1.35 0.824 C 1.468 0.775 1.595 0.75 1.722 0.75 L 1.723 0 Z M 1.063 0.131 L 0.777 -0.562 C 0.476 -0.438 0.204 -0.256 -0.026 -0.026 L 0.504 0.504 L 1.035 1.035 C 1.125 0.944 1.232 0.873 1.35 0.824 L 1.063 0.131 Z M 0.504 0.504 L -0.026 -0.026 C -0.256 0.204 -0.438 0.476 -0.562 0.777 L 0.131 1.063 L 0.824 1.35 C 0.873 1.232 0.944 1.125 1.035 1.035 L 0.504 0.504 Z M 0.131 1.063 L -0.562 0.777 C -0.687 1.077 -0.75 1.399 -0.75 1.724 L 0 1.723 L 0.75 1.722 C 0.75 1.595 0.775 1.468 0.824 1.35 L 0.131 1.063 Z M 0 1.723 L -0.75 1.723 L -0.75 5.179 L 0 5.179 L 0.75 5.179 L 0.75 1.723 L 0 1.723 Z M 0 5.179 L -0.75 5.178 C -0.751 5.835 -0.491 6.465 -0.028 6.93 L 0.504 6.401 L 1.035 5.872 C 0.852 5.688 0.75 5.439 0.75 5.18 L 0 5.179 Z M 0.504 6.401 L -0.028 6.93 C 0.435 7.396 1.064 7.659 1.72 7.661 L 1.723 6.911 L 1.726 6.161 C 1.467 6.16 1.218 6.056 1.035 5.872 L 0.504 6.401 Z M 1.723 6.911 L 1.723 7.661 L 5.179 7.661 L 5.179 6.911 L 5.179 6.161 L 1.723 6.161 L 1.723 6.911 Z M 5.179 6.911 L 5.178 7.661 C 5.505 7.662 5.828 7.598 6.129 7.473 L 5.842 6.78 L 5.556 6.087 C 5.437 6.136 5.309 6.161 5.18 6.161 L 5.179 6.911 Z M 5.842 6.78 L 6.129 7.473 C 6.43 7.348 6.704 7.165 6.935 6.935 L 6.404 6.404 L 5.874 5.874 C 5.783 5.965 5.675 6.038 5.556 6.087 L 5.842 6.78 Z M 6.404 6.404 L 6.935 6.935 C 7.165 6.704 7.348 6.43 7.473 6.129 L 6.78 5.842 L 6.087 5.556 C 6.038 5.675 5.965 5.783 5.874 5.874 L 6.404 6.404 Z M 6.78 5.842 L 7.473 6.129 C 7.598 5.828 7.662 5.505 7.661 5.178 L 6.911 5.179 L 6.161 5.18 C 6.161 5.309 6.136 5.437 6.087 5.556 L 6.78 5.842 Z M 6.911 5.179 L 7.661 5.179 L 7.661 1.723 L 6.911 1.723 L 6.161 1.723 L 6.161 5.179 L 6.911 5.179 Z M 6.911 1.723 L 7.661 1.72 C 7.659 1.064 7.396 0.435 6.93 -0.028 L 6.401 0.504 L 5.872 1.035 C 6.056 1.218 6.16 1.467 6.161 1.726 L 6.911 1.723 Z M 6.401 0.504 L 6.93 -0.028 C 6.465 -0.491 5.835 -0.751 5.178 -0.75 L 5.179 0 L 5.18 0.75 C 5.439 0.75 5.688 0.852 5.872 1.035 L 6.401 0.504 Z M 14.777 0 L 14.777 -0.75 L 11.321 -0.75 L 11.321 0 L 11.321 0.75 L 14.777 0.75 L 14.777 0 Z M 11.321 0 L 11.322 -0.75 C 10.665 -0.751 10.035 -0.491 9.57 -0.028 L 10.099 0.504 L 10.628 1.035 C 10.812 0.852 11.061 0.75 11.32 0.75 L 11.321 0 Z M 10.099 0.504 L 9.57 -0.028 C 9.104 0.435 8.841 1.064 8.839 1.72 L 9.589 1.723 L 10.339 1.726 C 10.34 1.467 10.444 1.218 10.628 1.035 L 10.099 0.504 Z M 9.589 1.723 L 8.839 1.723 L 8.839 5.179 L 9.589 5.179 L 10.339 5.179 L 10.339 1.723 L 9.589 1.723 Z M 9.589 5.179 L 8.839 5.18 C 8.839 5.838 9.101 6.469 9.566 6.934 L 10.096 6.404 L 10.627 5.873 C 10.442 5.689 10.339 5.439 10.339 5.179 L 9.589 5.179 Z M 10.096 6.404 L 9.566 6.934 C 10.031 7.399 10.662 7.661 11.32 7.661 L 11.321 6.911 L 11.321 6.161 C 11.061 6.161 10.811 6.058 10.627 5.873 L 10.096 6.404 Z M 11.321 6.911 L 11.321 7.661 L 14.777 7.661 L 14.777 6.911 L 14.777 6.161 L 11.321 6.161 L 11.321 6.911 Z M 14.777 6.911 L 14.78 7.661 C 15.436 7.659 16.065 7.396 16.528 6.93 L 15.996 6.401 L 15.465 5.872 C 15.282 6.056 15.033 6.16 14.774 6.161 L 14.777 6.911 Z M 15.996 6.401 L 16.528 6.93 C 16.991 6.465 17.251 5.835 17.25 5.178 L 16.5 5.179 L 15.75 5.18 C 15.75 5.439 15.648 5.688 15.465 5.872 L 15.996 6.401 Z M 16.5 5.179 L 17.25 5.179 L 17.25 1.723 L 16.5 1.723 L 15.75 1.723 L 15.75 5.179 L 16.5 5.179 Z M 16.5 1.723 L 17.25 1.724 C 17.25 1.399 17.187 1.077 17.062 0.777 L 16.369 1.063 L 15.676 1.35 C 15.725 1.468 15.75 1.595 15.75 1.722 L 16.5 1.723 Z M 16.369 1.063 L 17.062 0.777 C 16.938 0.476 16.756 0.204 16.526 -0.026 L 15.996 0.504 L 15.466 1.035 C 15.556 1.125 15.627 1.232 15.676 1.35 L 16.369 1.063 Z M 15.996 0.504 L 16.526 -0.026 C 16.296 -0.256 16.024 -0.438 15.723 -0.562 L 15.437 0.131 L 15.15 0.824 C 15.268 0.873 15.375 0.944 15.466 1.035 L 15.996 0.504 Z M 15.437 0.131 L 15.723 -0.562 C 15.423 -0.687 15.101 -0.75 14.776 -0.75 L 14.777 0 L 14.778 0.75 C 14.905 0.75 15.032 0.775 15.15 0.824 L 15.437 0.131 Z M 14.777 9.588 L 14.777 8.838 L 11.321 8.838 L 11.321 9.588 L 11.321 10.338 L 14.777 10.338 L 14.777 9.588 Z M 11.321 9.588 L 11.322 8.838 C 10.665 8.837 10.035 9.097 9.569 9.56 L 10.098 10.092 L 10.627 10.623 C 10.811 10.44 11.06 10.338 11.32 10.338 L 11.321 9.588 Z M 10.098 10.092 L 9.569 9.56 C 9.104 10.024 8.841 10.652 8.839 11.309 L 9.589 11.312 L 10.339 11.315 C 10.34 11.055 10.443 10.806 10.627 10.623 L 10.098 10.092 Z M 9.589 11.312 L 8.839 11.312 L 8.839 14.768 L 9.589 14.768 L 10.339 14.768 L 10.339 11.312 L 9.589 11.312 Z M 9.589 14.768 L 8.839 14.767 C 8.838 15.093 8.902 15.416 9.027 15.718 L 9.72 15.431 L 10.413 15.144 C 10.364 15.025 10.339 14.898 10.339 14.769 L 9.589 14.768 Z M 9.72 15.431 L 9.027 15.718 C 9.152 16.019 9.335 16.293 9.565 16.524 L 10.096 15.993 L 10.626 15.463 C 10.535 15.372 10.462 15.264 10.413 15.144 L 9.72 15.431 Z M 10.096 15.993 L 9.565 16.524 C 9.796 16.754 10.07 16.937 10.371 17.062 L 10.658 16.369 L 10.944 15.676 C 10.825 15.626 10.717 15.554 10.626 15.463 L 10.096 15.993 Z M 10.658 16.369 L 10.371 17.062 C 10.672 17.186 10.995 17.25 11.322 17.25 L 11.321 16.5 L 11.32 15.75 C 11.191 15.75 11.063 15.725 10.944 15.676 L 10.658 16.369 Z M 11.321 16.5 L 11.321 17.25 L 14.777 17.25 L 14.777 16.5 L 14.777 15.75 L 11.321 15.75 L 11.321 16.5 Z M 14.777 16.5 L 14.78 17.25 C 15.436 17.247 16.065 16.984 16.528 16.519 L 15.996 15.99 L 15.465 15.461 C 15.282 15.645 15.033 15.749 14.774 15.75 L 14.777 16.5 Z M 15.996 15.99 L 16.528 16.519 C 16.991 16.054 17.251 15.424 17.25 14.767 L 16.5 14.768 L 15.75 14.769 C 15.75 15.028 15.648 15.277 15.465 15.461 L 15.996 15.99 Z M 16.5 14.768 L 17.25 14.768 L 17.25 11.312 L 16.5 11.312 L 15.75 11.312 L 15.75 14.768 L 16.5 14.768 Z M 16.5 11.312 L 17.25 11.313 C 17.25 10.988 17.187 10.666 17.062 10.366 L 16.369 10.652 L 15.676 10.939 C 15.725 11.057 15.75 11.183 15.75 11.311 L 16.5 11.312 Z M 16.369 10.652 L 17.062 10.366 C 16.938 10.065 16.756 9.792 16.526 9.563 L 15.996 10.093 L 15.466 10.623 C 15.556 10.714 15.627 10.821 15.676 10.939 L 16.369 10.652 Z M 15.996 10.093 L 16.526 9.563 C 16.296 9.333 16.024 9.151 15.723 9.026 L 15.437 9.719 L 15.15 10.412 C 15.268 10.461 15.375 10.533 15.466 10.623 L 15.996 10.093 Z M 15.437 9.719 L 15.723 9.026 C 15.423 8.902 15.101 8.838 14.776 8.839 L 14.777 9.589 L 14.778 10.339 C 14.905 10.339 15.032 10.364 15.15 10.412 L 15.437 9.719 Z M 5.179 9.588 L 5.179 8.838 L 1.723 8.838 L 1.723 9.588 L 1.723 10.338 L 5.179 10.338 L 5.179 9.588 Z M 1.723 9.588 L 1.719 8.838 C 1.063 8.842 0.435 9.105 -0.028 9.57 L 0.504 10.099 L 1.036 10.628 C 1.219 10.444 1.468 10.339 1.727 10.338 L 1.723 9.588 Z M 0.504 10.099 L -0.028 9.57 C -0.49 10.035 -0.75 10.665 -0.75 11.321 L 0 11.321 L 0.75 11.321 C 0.75 11.061 0.853 10.812 1.036 10.628 L 0.504 10.099 Z M 0 11.321 L -0.75 11.321 L -0.75 14.777 L 0 14.777 L 0.75 14.777 L 0.75 11.321 L 0 11.321 Z M 0 14.777 L -0.75 14.776 C -0.75 15.101 -0.687 15.423 -0.562 15.723 L 0.131 15.437 L 0.824 15.15 C 0.775 15.032 0.75 14.905 0.75 14.778 L 0 14.777 Z M 0.131 15.437 L -0.562 15.723 C -0.438 16.024 -0.256 16.296 -0.026 16.526 L 0.504 15.996 L 1.035 15.466 C 0.944 15.375 0.873 15.268 0.824 15.15 L 0.131 15.437 Z M 0.504 15.996 L -0.026 16.526 C 0.204 16.756 0.476 16.938 0.777 17.062 L 1.063 16.369 L 1.35 15.676 C 1.232 15.627 1.125 15.556 1.035 15.466 L 0.504 15.996 Z M 1.063 16.369 L 0.777 17.062 C 1.077 17.187 1.399 17.25 1.724 17.25 L 1.723 16.5 L 1.722 15.75 C 1.595 15.75 1.468 15.725 1.35 15.676 L 1.063 16.369 Z M 1.723 16.5 L 1.723 17.25 L 5.179 17.25 L 5.179 16.5 L 5.179 15.75 L 1.723 15.75 L 1.723 16.5 Z M 5.179 16.5 L 5.178 17.25 C 5.835 17.251 6.465 16.991 6.93 16.528 L 6.401 15.996 L 5.872 15.465 C 5.688 15.648 5.439 15.75 5.18 15.75 L 5.179 16.5 Z M 6.401 15.996 L 6.93 16.528 C 7.396 16.065 7.659 15.436 7.661 14.78 L 6.911 14.777 L 6.161 14.774 C 6.16 15.033 6.056 15.282 5.872 15.465 L 6.401 15.996 Z M 6.911 14.777 L 7.661 14.777 L 7.661 11.321 L 6.911 11.321 L 6.161 11.321 L 6.161 14.777 L 6.911 14.777 Z M 6.911 11.321 L 7.661 11.322 C 7.662 10.995 7.598 10.672 7.473 10.371 L 6.78 10.658 L 6.087 10.944 C 6.136 11.063 6.161 11.191 6.161 11.32 L 6.911 11.321 Z M 6.78 10.658 L 7.473 10.371 C 7.348 10.07 7.165 9.796 6.935 9.565 L 6.404 10.096 L 5.874 10.626 C 5.965 10.717 6.038 10.825 6.087 10.944 L 6.78 10.658 Z M 6.404 10.096 L 6.935 9.565 C 6.704 9.335 6.43 9.152 6.129 9.027 L 5.842 9.72 L 5.556 10.413 C 5.675 10.462 5.783 10.535 5.874 10.626 L 6.404 10.096 Z M 5.842 9.72 L 6.129 9.027 C 5.828 8.902 5.505 8.838 5.178 8.839 L 5.179 9.589 L 5.18 10.339 C 5.309 10.339 5.437 10.364 5.556 10.413 L 5.842 9.72 Z" fill="#000" fill-rule="nonzero"></path>
</svg>