<svg xmlns="http://www.w3.org/2000/svg" width="8.333" height="4.167" viewBox="0 0 8.333 4.167" fill="#000">
  <path d="M 8.862 0.529 C 9.154 0.237 9.154 -0.237 8.862 -0.529 C 8.57 -0.821 8.097 -0.821 7.805 -0.529 L 8.862 0.529 Z M 4.167 4.167 L 3.638 4.695 L 4.167 5.224 L 4.695 4.695 L 4.167 4.167 Z M 0.529 -0.529 C 0.237 -0.821 -0.237 -0.821 -0.529 -0.529 C -0.821 -0.237 -0.821 0.237 -0.529 0.529 L 0.529 -0.529 Z M 8.333 0 L 7.805 -0.529 L 3.638 3.638 L 4.167 4.167 L 4.695 4.695 L 8.862 0.529 L 8.333 0 Z M 4.167 4.167 L 4.695 3.638 L 0.529 -0.529 L 0 0 L -0.529 0.529 L 3.638 4.695 L 4.167 4.167 Z" fill="#000" fill-rule="nonzero"></path>
</svg>