<svg xmlns="http://www.w3.org/2000/svg" width="23.529" height="23.526" viewBox="0 0 23.529 23.526" fill="#000">
  <path d="M 8.402 3.361 C 8.585 3.361 8.762 3.421 8.908 3.531 C 9.054 3.641 9.16 3.795 9.21 3.971 L 10.121 7.159 C 10.317 7.846 10.685 8.471 11.19 8.976 C 11.695 9.481 12.32 9.849 13.007 10.045 L 16.196 10.956 C 16.371 11.007 16.525 11.113 16.635 11.258 C 16.745 11.404 16.805 11.582 16.805 11.764 C 16.805 11.947 16.745 12.124 16.635 12.27 C 16.525 12.416 16.371 12.522 16.196 12.572 L 13.007 13.483 C 12.32 13.679 11.695 14.047 11.19 14.552 C 10.685 15.057 10.317 15.682 10.121 16.369 L 9.21 19.558 C 9.16 19.733 9.054 19.887 8.908 19.997 C 8.762 20.107 8.585 20.166 8.402 20.166 C 8.22 20.166 8.042 20.107 7.897 19.997 C 7.751 19.887 7.645 19.733 7.595 19.558 L 6.684 16.369 C 6.488 15.682 6.12 15.057 5.615 14.552 C 5.11 14.047 4.484 13.679 3.798 13.483 L 0.609 12.572 C 0.433 12.522 0.279 12.416 0.169 12.27 C 0.059 12.124 0 11.947 0 11.764 C 0 11.582 0.059 11.404 0.169 11.258 C 0.279 11.113 0.433 11.007 0.609 10.956 L 3.798 10.045 C 4.484 9.849 5.11 9.481 5.615 8.976 C 6.12 8.471 6.488 7.846 6.684 7.159 L 7.595 3.971 C 7.645 3.795 7.751 3.641 7.896 3.531 C 8.042 3.421 8.22 3.361 8.402 3.361 Z M 18.486 0 C 18.673 0 18.855 0.062 19.003 0.178 C 19.151 0.293 19.256 0.455 19.301 0.636 L 19.591 1.797 C 19.855 2.85 20.677 3.673 21.73 3.937 L 22.891 4.226 C 23.073 4.271 23.235 4.376 23.351 4.524 C 23.467 4.672 23.529 4.854 23.529 5.042 C 23.529 5.229 23.467 5.412 23.351 5.56 C 23.235 5.707 23.073 5.812 22.891 5.857 L 21.73 6.146 C 20.677 6.411 19.855 7.233 19.591 8.286 L 19.301 9.447 C 19.256 9.629 19.151 9.791 19.004 9.907 C 18.856 10.023 18.674 10.085 18.486 10.085 C 18.298 10.085 18.116 10.023 17.968 9.907 C 17.82 9.791 17.715 9.629 17.67 9.447 L 17.381 8.286 C 17.252 7.769 16.984 7.297 16.608 6.92 C 16.231 6.543 15.758 6.276 15.241 6.146 L 14.08 5.857 C 13.898 5.812 13.736 5.707 13.621 5.56 C 13.505 5.412 13.442 5.229 13.442 5.042 C 13.442 4.854 13.505 4.672 13.621 4.524 C 13.736 4.376 13.898 4.271 14.08 4.226 L 15.241 3.937 C 15.758 3.808 16.231 3.54 16.608 3.163 C 16.984 2.787 17.252 2.314 17.381 1.797 L 17.67 0.636 C 17.716 0.455 17.821 0.293 17.968 0.178 C 18.116 0.062 18.298 0 18.486 0 Z M 16.805 15.125 C 16.982 15.125 17.154 15.181 17.297 15.284 C 17.44 15.387 17.547 15.533 17.603 15.7 L 18.044 17.025 C 18.212 17.526 18.605 17.921 19.107 18.088 L 20.432 18.53 C 20.599 18.586 20.744 18.693 20.847 18.836 C 20.949 18.979 21.005 19.151 21.005 19.327 C 21.005 19.503 20.949 19.674 20.847 19.817 C 20.744 19.96 20.599 20.067 20.432 20.123 L 19.107 20.566 C 18.606 20.734 18.211 21.126 18.044 21.628 L 17.602 22.953 C 17.546 23.12 17.439 23.265 17.296 23.368 C 17.153 23.471 16.981 23.526 16.805 23.526 C 16.629 23.526 16.458 23.471 16.315 23.368 C 16.172 23.265 16.065 23.12 16.009 22.953 L 15.566 21.628 C 15.484 21.381 15.345 21.156 15.16 20.972 C 14.976 20.787 14.751 20.648 14.504 20.566 L 13.179 20.123 C 13.012 20.067 12.867 19.96 12.764 19.817 C 12.661 19.674 12.606 19.503 12.606 19.327 C 12.606 19.151 12.661 18.979 12.764 18.836 C 12.867 18.693 13.012 18.586 13.179 18.53 L 14.504 18.088 C 15.005 17.919 15.399 17.527 15.566 17.025 L 16.009 15.7 C 16.064 15.533 16.171 15.387 16.314 15.284 C 16.457 15.181 16.629 15.125 16.805 15.125 Z" fill="#000" fill-rule="evenodd"></path>
</svg>