<svg width="1082" height="200" viewBox="0 0 1082 200" fill="none" xmlns="http://www.w3.org/2000/svg">
<path d="M93.9531 148.956C108.048 148.956 119.474 160.383 119.475 174.478C119.475 188.573 108.048 199.999 93.9531 199.999C79.858 199.999 68.4316 188.573 68.4316 174.478C68.4318 160.383 79.8581 148.956 93.9531 148.956ZM49.584 105.86C63.6789 105.861 75.1055 117.287 75.1055 131.382C75.1053 145.477 63.6788 156.903 49.584 156.903C35.4889 156.903 24.0626 145.477 24.0625 131.382C24.0625 117.287 35.4889 105.86 49.584 105.86ZM138.32 105.86C152.415 105.86 163.842 117.287 163.842 131.382C163.842 145.477 152.415 156.903 138.32 156.903C124.225 156.903 112.799 145.477 112.799 131.382C112.799 117.287 124.225 105.86 138.32 105.86ZM93.9531 0C145.842 0.000188868 187.905 42.0638 187.905 93.9521H142.359C142.359 67.2181 120.687 45.5461 93.9531 45.5459C67.2189 45.5459 45.5459 67.218 45.5459 93.9521H0C2.08355e-05 42.0637 42.0645 4.53623e-06 93.9531 0Z" fill="#562AA7"></path>
<path d="M430.085 200C415.57 200 402.887 197.214 392.037 191.643C381.187 185.924 372.757 177.934 366.745 167.67C360.88 157.26 357.948 145.091 357.948 131.162C357.948 117.233 360.88 105.137 366.745 94.8735C372.757 84.6101 381.187 76.6927 392.037 71.1211C402.887 65.5496 415.643 62.7638 430.305 62.7638C444.967 62.7638 457.576 65.5496 468.133 71.1211C478.836 76.6927 487.12 84.6101 492.985 94.8735C498.85 105.137 501.782 117.306 501.782 131.382C501.782 145.311 498.85 157.48 492.985 167.89C487.12 178.154 478.836 186.071 468.133 191.643C457.43 197.214 444.747 200 430.085 200ZM430.085 164.811C440.202 164.811 447.899 161.805 453.178 155.794C458.602 149.636 461.315 141.425 461.315 131.162C461.315 120.899 458.602 112.834 453.178 106.97C447.899 100.958 440.202 97.9526 430.085 97.9526C419.822 97.9526 411.977 100.958 406.552 106.97C401.128 112.834 398.415 120.899 398.415 131.162C398.415 141.425 401.128 149.636 406.552 155.794C411.977 161.805 419.822 164.811 430.085 164.811Z" fill="#562AA7"></path>
<path d="M513.253 197.361V12.6198H553.72V108.729H554.6L602.544 65.403H650.489L595.946 114.667L654.448 197.361H607.383L567.355 139.299L553.72 150.296V197.361H513.253Z" fill="#562AA7"></path>
<path d="M719.038 200C704.523 200 691.914 197.214 681.21 191.643C670.507 185.924 662.223 177.934 656.358 167.67C650.64 157.26 647.781 145.018 647.781 130.942C647.781 116.867 650.567 104.77 656.138 94.6536C661.856 84.3902 669.921 76.5461 680.331 71.1211C690.887 65.5496 703.277 62.7638 717.499 62.7638C731.574 62.7638 743.67 65.4763 753.787 70.9012C763.904 76.1795 771.601 83.8037 776.88 93.7739C782.305 103.744 785.017 115.694 785.017 129.622V142.598H686.709C688.321 151.102 691.84 157.554 697.265 161.952C702.69 166.204 709.875 168.33 718.818 168.33C726.003 168.33 731.574 167.23 735.533 165.031C739.638 162.685 742.571 159.02 744.33 154.035H784.797C782.011 168.403 774.827 179.693 763.244 187.904C751.661 195.968 736.926 200 719.038 200ZM687.368 116.207H746.31C744.99 108.876 741.911 103.451 737.072 99.9319C732.381 96.2664 725.929 94.4337 717.719 94.4337C709.655 94.4337 703.057 96.2664 697.925 99.9319C692.793 103.597 689.274 109.022 687.368 116.207Z" fill="#562AA7"></path>
<path d="M807.381 197.361V104.99H787.588V65.403H828.055V87.3959H837.292C842.57 79.7717 849.021 73.8336 856.646 69.5816C864.416 65.183 874.313 62.9837 886.336 62.9837C905.103 62.9837 919.472 68.0421 929.442 78.1589C939.559 88.2756 944.617 101.838 944.617 118.846V197.361H904.15V126.763C904.15 117.673 901.731 110.782 896.893 106.09C892.201 101.398 885.236 99.0522 875.999 99.0522C866.762 99.0522 859.725 101.398 854.886 106.09C850.194 110.782 847.848 117.673 847.848 126.763V197.361H807.381Z" fill="#562AA7"></path>
<path d="M1022.44 200C1002.64 200 987.03 195.821 975.593 187.464C964.303 179.107 958.219 167.45 957.339 152.495H996.267C997.44 158.36 1000.23 162.685 1004.62 165.471C1009.17 168.257 1015.69 169.65 1024.2 169.65C1037.39 169.65 1043.99 166.204 1043.99 159.313C1043.99 156.527 1042.96 154.328 1040.91 152.715C1039.01 150.956 1035.78 149.636 1031.24 148.756L1001.76 143.038C974.787 137.76 961.298 125.151 961.298 105.21C961.298 92.3077 966.503 82.0443 976.913 74.4201C987.323 66.6492 1001.69 62.7638 1020.02 62.7638C1038.35 62.7638 1052.79 66.7225 1063.35 74.64C1073.9 82.5575 1079.62 93.7006 1080.5 108.069H1041.57C1040.11 102.351 1037.47 98.2458 1033.65 95.7533C1029.99 93.1141 1024.56 91.7945 1017.38 91.7945C1011.52 91.7945 1006.97 92.6009 1003.74 94.2137C1000.67 95.8266 999.126 98.2458 999.126 101.471C999.126 103.817 1000.08 105.797 1001.98 107.41C1003.89 109.022 1006.75 110.195 1010.56 110.928L1040.91 116.867C1054.99 119.652 1065.32 124.198 1071.92 130.502C1078.52 136.807 1081.82 145.311 1081.82 156.014C1081.82 169.796 1076.69 180.573 1066.42 188.344C1056.31 196.115 1041.65 200 1022.44 200Z" fill="#562AA7"></path>
<path d="M331.039 53.5605H359.795V84.931H331.475V197.361H289.283V84.931H267.499V53.5605H289.72V14.3469H331.039V53.5605Z" fill="#562AA7"></path>
</svg>